<svg version="1.1" id="Layer_1" xmlns="http://www.w3.org/2000/svg" xmlns:xlink="http://www.w3.org/1999/xlink" x="0px" y="0px" viewBox="0 0 500 500" style="width: 166px;" xml:space="preserve" data-imageid="calculator-72" imageName="Calculator" class="illustrations_image">
<style type="text/css">
	.st0_calculator-72{fill:#093F68;}
	.st1_calculator-72{fill:#68E1FD;}
	.st2_calculator-72{fill:#FFBC0E;}
	.st3_calculator-72{fill:#F56132;}
	.st4_calculator-72{fill:#FFFFFF;}
</style>
<g id="calculator_calculator-72">
	<path class="st0_calculator-72" d="M143.5,107.8h208c9.9,0,18,8,18,18v267.8c0,9.9-8,18-18,18h-208c-9.9,0-18-8-18-18V125.7&#10;&#9;&#9;C125.6,115.8,133.6,107.8,143.5,107.8z"/>
	<path class="st0_calculator-72" d="M352.7,413.3H142.4c-10.3,0-18.6-8.3-18.6-18.6V124.6c0-10.3,8.3-18.6,18.6-18.6h210.4&#10;&#9;&#9;c10.3,0,18.6,8.3,18.6,18.6v270.2C371.3,405,363,413.3,352.7,413.3z M142.4,109.6c-8.3,0-15,6.7-15,15v270.1c0,8.3,6.7,15,15,15&#10;&#9;&#9;h210.4c8.2,0,14.9-6.7,15-15V124.6c0-8.3-6.7-15-15-15L142.4,109.6z"/>
	<path class="st1_calculator-72 targetColor" d="M142.2,87.7h210.7c9.2,0,16.6,7.4,16.6,16.6v270.6c0,9.2-7.4,16.6-16.6,16.6H142.2c-9.2,0-16.6-7.4-16.6-16.6&#10;&#9;&#9;V104.2C125.6,95.1,133,87.7,142.2,87.7z" style="fill: rgb(87, 73, 253);"/>
	<path class="st0_calculator-72" d="M352.7,393.2H142.4c-10.3,0-18.6-8.3-18.6-18.6V104.4c0-10.3,8.3-18.6,18.6-18.6h210.4&#10;&#9;&#9;c10.3,0,18.6,8.3,18.6,18.6v270.2C371.3,384.9,363,393.2,352.7,393.2z M142.4,89.5c-8.3,0-15,6.7-15,15l0,0v270.1&#10;&#9;&#9;c0,8.3,6.7,14.9,15,14.9h210.4c8.2,0,14.9-6.7,15-14.9V104.4c0-8.3-6.7-15-15-15L142.4,89.5z"/>
	<path class="st2_calculator-72" d="M145.8,168.9h38.5c1.1,0,2,0.9,2,2v38.5c0,1.1-0.9,2-2,2h-38.5c-1.1,0-2-0.9-2-2v-38.5&#10;&#9;&#9;C143.8,169.8,144.7,168.9,145.8,168.9z"/>
	<path class="st0_calculator-72" d="M182.7,213.3h-35.2c-3,0-5.5-2.5-5.5-5.5v-35.2c0-3,2.5-5.5,5.5-5.5h35.2c3,0,5.5,2.5,5.5,5.5v35.2&#10;&#9;&#9;C188.2,210.8,185.7,213.3,182.7,213.3z M147.5,170.8c-1,0-1.9,0.8-1.9,1.8v0v35.2c0,1,0.8,1.9,1.8,1.9h0h35.2c1,0,1.8-0.8,1.8-1.8&#10;&#9;&#9;c0,0,0,0,0,0v-35.2c0-1-0.8-1.8-1.8-1.8c0,0,0,0,0,0H147.5z"/>
	<path class="st0_calculator-72" d="M167.4,182.5h-8.7V179h12.9v3.3l-7,14.3h-4.3L167.4,182.5z"/>
	<path class="st2_calculator-72" d="M200.6,168.9h38.5c1.1,0,2,0.9,2,2v38.5c0,1.1-0.9,2-2,2h-38.5c-1.1,0-2-0.9-2-2v-38.5&#10;&#9;&#9;C198.6,169.8,199.5,168.9,200.6,168.9z"/>
	<path class="st0_calculator-72" d="M237.4,213.3h-35.2c-3,0-5.5-2.5-5.5-5.5v-35.2c0-3,2.5-5.5,5.5-5.5h35.2c3,0,5.5,2.5,5.5,5.5v35.2&#10;&#9;&#9;C242.9,210.8,240.5,213.3,237.4,213.3z M202.3,170.8c-1,0-1.8,0.8-1.8,1.9v35.2c0,1,0.8,1.8,1.8,1.9h35.2c1,0,1.8-0.8,1.8-1.9&#10;&#9;&#9;v-35.2c0-1-0.8-1.8-1.8-1.9L202.3,170.8z"/>
	<path class="st0_calculator-72" d="M214,186c0-0.7,0.1-1.5,0.5-2.1c0.3-0.6,0.7-1.1,1.3-1.5c0.6-0.4,1.2-0.7,1.9-0.9c1.5-0.4,3.1-0.4,4.6,0&#10;&#9;&#9;c0.7,0.2,1.3,0.5,1.9,0.9c0.5,0.4,1,0.9,1.3,1.5c0.3,0.7,0.5,1.4,0.5,2.1c0,0.9-0.3,1.8-0.8,2.5c-0.6,0.7-1.3,1.2-2.2,1.4v0.1&#10;&#9;&#9;c2,0.4,3.4,2.2,3.3,4.3c0,1.5-0.7,2.9-1.9,3.8c-0.6,0.4-1.3,0.8-2,1c-1.5,0.4-3.1,0.4-4.7,0c-0.7-0.2-1.4-0.6-2-1&#10;&#9;&#9;c-1.2-0.9-1.9-2.3-1.9-3.8c-0.1-2.1,1.3-3.9,3.4-4.3v-0.1c-0.9-0.2-1.6-0.7-2.2-1.4C214.3,187.7,214,186.9,214,186z M217.4,193.7&#10;&#9;&#9;c0,0.6,0.2,1.2,0.7,1.6c1,0.9,2.5,0.9,3.6,0c0.9-0.8,0.9-2.2,0-3.1c0,0,0,0,0,0c-1-0.9-2.5-0.9-3.6,0&#10;&#9;&#9;C217.7,192.5,217.4,193.1,217.4,193.7L217.4,193.7z M217.7,186.5c0,0.5,0.2,1,0.6,1.4c0.9,0.8,2.2,0.8,3.1,0&#10;&#9;&#9;c0.4-0.4,0.6-0.9,0.6-1.4c0-0.5-0.2-1-0.6-1.4c-0.9-0.8-2.2-0.8-3.1,0C217.9,185.5,217.7,186,217.7,186.5L217.7,186.5z"/>
	<path class="st2_calculator-72" d="M255.4,168.9h38.5c1.1,0,2,0.9,2,2v38.5c0,1.1-0.9,2-2,2h-38.5c-1.1,0-2-0.9-2-2v-38.5&#10;&#9;&#9;C253.4,169.8,254.3,168.9,255.4,168.9z"/>
	<path class="st0_calculator-72" d="M292.2,213.3H257c-3,0-5.5-2.5-5.5-5.5v-35.2c0-3,2.5-5.5,5.5-5.5h35.2c3,0,5.5,2.5,5.5,5.5l0,0v35.2&#10;&#9;&#9;C297.7,210.8,295.2,213.3,292.2,213.3z M257,170.8c-1,0-1.8,0.8-1.8,1.8c0,0,0,0,0,0v35.2c0,1,0.8,1.8,1.8,1.8c0,0,0,0,0,0h35.2&#10;&#9;&#9;c1,0,1.9-0.8,1.9-1.8v0v-35.2c0-1-0.8-1.9-1.9-1.9l0,0H257z"/>
	<path class="st0_calculator-72" d="M274.8,192.9l-0.6,0.1c-0.2,0-0.4,0-0.6,0.1c-0.8,0-1.5-0.1-2.3-0.4c-0.7-0.3-1.3-0.7-1.7-1.2&#10;&#9;&#9;c-0.5-0.5-0.9-1.2-1.1-1.8c-0.3-0.7-0.4-1.5-0.4-2.2c0-0.8,0.2-1.7,0.5-2.5c0.3-0.7,0.8-1.4,1.4-1.9c0.6-0.5,1.3-1,2-1.2&#10;&#9;&#9;c1.7-0.6,3.5-0.6,5.1,0c0.8,0.3,1.5,0.7,2.1,1.2c1.2,1.1,1.9,2.7,1.9,4.4c0,0.6,0,1.1-0.1,1.7c-0.1,0.5-0.3,1-0.5,1.5&#10;&#9;&#9;c-0.2,0.5-0.4,0.9-0.7,1.3c-0.2,0.4-0.5,0.9-0.8,1.3l-3.9,6h-4.5L274.8,192.9z M271.8,187.4c0,0.7,0.3,1.5,0.8,2c1.2,1,2.9,1,4.1,0&#10;&#9;&#9;c1-1.1,1-2.8,0-3.9c-1.2-1-2.9-1-4.1,0C272.1,186,271.8,186.7,271.8,187.4L271.8,187.4z"/>
	<path class="st2_calculator-72" d="M310.1,168.9h38.5c1.1,0,2,0.9,2,2v38.5c0,1.1-0.9,2-2,2h-38.5c-1.1,0-2-0.9-2-2v-38.5&#10;&#9;&#9;C308.1,169.8,309,168.9,310.1,168.9z"/>
	<path class="st0_calculator-72" d="M347,213.3h-35.2c-3,0-5.5-2.5-5.5-5.5l0,0v-35.2c0-3,2.5-5.5,5.5-5.5l0,0H347c3,0,5.5,2.5,5.5,5.5v35.2&#10;&#9;&#9;C352.5,210.8,350,213.3,347,213.3z M311.8,170.8c-1,0-1.9,0.8-1.9,1.8v0v35.2c0,1,0.8,1.9,1.9,1.9l0,0H347c1,0,1.8-0.8,1.8-1.8&#10;&#9;&#9;c0,0,0,0,0,0v-35.2c0-1-0.8-1.8-1.8-1.8c0,0,0,0,0,0H311.8z"/>
	<path class="st2_calculator-72" d="M145.8,220.8h38.5c1.1,0,2,0.9,2,2v38.5c0,1.1-0.9,2-2,2h-38.5c-1.1,0-2-0.9-2-2v-38.5&#10;&#9;&#9;C143.8,221.7,144.7,220.8,145.8,220.8z"/>
	<path class="st0_calculator-72" d="M182.7,265.1h-35.2c-3,0-5.5-2.5-5.5-5.5l0,0v-35.2c0-3,2.5-5.5,5.5-5.5h35.2c3,0,5.5,2.5,5.5,5.5v35.2&#10;&#9;&#9;C188.2,262.7,185.7,265.1,182.7,265.1z M147.5,222.6c-1,0-1.8,0.8-1.8,1.8c0,0,0,0,0,0v35.2c0,1,0.8,1.9,1.8,1.9h0h35.2&#10;&#9;&#9;c1,0,1.8-0.8,1.8-1.8c0,0,0,0,0,0v-35.2c0-1-0.8-1.8-1.8-1.8L147.5,222.6z"/>
	<path class="st0_calculator-72" d="M166,247.3h-7.7v-3.1l7.2-10.9h4.1v10.9h2.3v3.1h-2.3v3.5H166V247.3z M166,238.1L166,238.1l-3.9,6.1h3.9V238.1&#10;&#9;&#9;z"/>
	<path class="st2_calculator-72" d="M200.6,220.8h38.5c1.1,0,2,0.9,2,2v38.5c0,1.1-0.9,2-2,2h-38.5c-1.1,0-2-0.9-2-2v-38.5&#10;&#9;&#9;C198.6,221.7,199.5,220.8,200.6,220.8z"/>
	<path class="st0_calculator-72" d="M237.4,265.1h-35.2c-3,0-5.5-2.5-5.5-5.5v-35.2c0-3,2.5-5.5,5.5-5.5h35.2c3,0,5.5,2.5,5.5,5.5v35.2&#10;&#9;&#9;C242.9,262.7,240.5,265.1,237.4,265.1z M202.3,222.6c-1,0-1.8,0.8-1.8,1.8v35.2c0,1,0.8,1.8,1.8,1.9h35.2c1,0,1.8-0.8,1.8-1.9&#10;&#9;&#9;v-35.2c0-1-0.8-1.8-1.8-1.8L202.3,222.6z"/>
	<path class="st0_calculator-72" d="M225.6,236.4h-7l-0.1,2.7c0.5-0.1,1-0.2,1.6-0.2c0.8,0,1.7,0.1,2.5,0.4c0.7,0.2,1.4,0.6,1.9,1.1&#10;&#9;&#9;c0.5,0.5,1,1.1,1.3,1.8c0.3,0.8,0.5,1.6,0.4,2.4c0,0.9-0.2,1.8-0.5,2.7c-0.3,0.8-0.8,1.4-1.4,2c-0.6,0.6-1.3,1-2.1,1.2&#10;&#9;&#9;c-0.9,0.3-1.8,0.4-2.7,0.4c-1.4,0-2.7-0.3-3.8-1.1c-1.1-0.8-1.8-2-2.1-3.4l3.9-0.9c0.1,0.6,0.4,1.1,0.8,1.5c0.4,0.4,1,0.6,1.6,0.6&#10;&#9;&#9;c0.7,0,1.4-0.2,1.9-0.8c0.5-0.5,0.7-1.2,0.7-1.9c0-0.5-0.1-1-0.4-1.4c-0.2-0.4-0.6-0.7-0.9-0.9c-0.4-0.2-0.8-0.4-1.3-0.5&#10;&#9;&#9;c-0.5-0.1-1-0.1-1.4-0.1c-0.6,0-1.2,0.1-1.9,0.2c-0.6,0.1-1.2,0.3-1.8,0.5l0.2-9.7h10.6L225.6,236.4z"/>
	<path class="st2_calculator-72" d="M255.4,220.8h38.5c1.1,0,2,0.9,2,2v38.5c0,1.1-0.9,2-2,2h-38.5c-1.1,0-2-0.9-2-2v-38.5&#10;&#9;&#9;C253.4,221.7,254.3,220.8,255.4,220.8z"/>
	<path class="st0_calculator-72" d="M292.2,265.1H257c-3,0-5.5-2.5-5.5-5.5v-35.2c0-3,2.5-5.5,5.5-5.5h35.2c3,0,5.5,2.5,5.5,5.5v35.2&#10;&#9;&#9;C297.7,262.7,295.2,265.1,292.2,265.1z M257,222.6c-1,0-1.8,0.8-1.8,1.8v35.2c0,1,0.8,1.8,1.8,1.8c0,0,0,0,0,0h35.2&#10;&#9;&#9;c1,0,1.9-0.8,1.9-1.9l0,0v-35.2c0-1-0.8-1.8-1.8-1.8c0,0,0,0,0,0L257,222.6z"/>
	<path class="st0_calculator-72" d="M274.5,239.4l0.6-0.1c0.2,0,0.4,0,0.6-0.1c0.8,0,1.5,0.1,2.2,0.4c0.7,0.3,1.3,0.7,1.7,1.2&#10;&#9;&#9;c0.5,0.5,0.9,1.1,1.1,1.8c0.3,0.7,0.4,1.5,0.4,2.2c0,0.9-0.2,1.7-0.5,2.5c-0.3,0.7-0.8,1.4-1.4,1.9c-0.6,0.5-1.3,1-2.1,1.2&#10;&#9;&#9;c-1.7,0.6-3.5,0.6-5.1,0c-0.8-0.3-1.5-0.7-2.1-1.2c-0.6-0.5-1.1-1.2-1.4-1.9c-0.3-0.8-0.5-1.6-0.5-2.5c0-0.6,0-1.2,0.2-1.7&#10;&#9;&#9;c0.1-0.5,0.3-1,0.5-1.5c0.2-0.5,0.4-0.9,0.7-1.3l0.8-1.3l3.9-6h4.5L274.5,239.4z M277.5,244.8c0-0.7-0.3-1.5-0.8-2&#10;&#9;&#9;c-0.5-0.5-1.3-0.8-2-0.8c-0.8,0-1.5,0.3-2,0.8c-1,1.1-1,2.8,0,3.9c0.5,0.5,1.3,0.8,2,0.8c0.8,0,1.5-0.3,2-0.8&#10;&#9;&#9;C277.2,246.2,277.5,245.5,277.5,244.8z"/>
	<path class="st2_calculator-72" d="M310.1,220.8h38.5c1.1,0,2,0.9,2,2v38.5c0,1.1-0.9,2-2,2h-38.5c-1.1,0-2-0.9-2-2v-38.5&#10;&#9;&#9;C308.1,221.7,309,220.8,310.1,220.8z"/>
	<path class="st0_calculator-72" d="M347,265.1h-35.2c-3,0-5.5-2.5-5.5-5.5c0,0,0,0,0,0v-35.2c0-3,2.5-5.5,5.5-5.5H347c3,0,5.5,2.5,5.5,5.5v35.2&#10;&#9;&#9;C352.5,262.7,350,265.1,347,265.1z M311.8,222.6c-1,0-1.8,0.8-1.8,1.8c0,0,0,0,0,0v35.2c0,1,0.8,1.9,1.9,1.9l0,0H347&#10;&#9;&#9;c1,0,1.8-0.8,1.8-1.8c0,0,0,0,0,0v-35.2c0-1-0.8-1.8-1.8-1.8L311.8,222.6z"/>
	<path class="st2_calculator-72" d="M145.8,272.6h38.5c1.1,0,2,0.9,2,2v38.5c0,1.1-0.9,2-2,2h-38.5c-1.1,0-2-0.9-2-2v-38.5&#10;&#9;&#9;C143.8,273.5,144.7,272.6,145.8,272.6z"/>
	<path class="st0_calculator-72" d="M182.7,317h-35.2c-3,0-5.5-2.5-5.5-5.5v-35.2c0-3,2.5-5.5,5.5-5.5l0,0h35.2c3,0,5.5,2.5,5.5,5.5v35.2&#10;&#9;&#9;C188.2,314.5,185.7,317,182.7,317L182.7,317z M147.5,274.5c-1,0-1.9,0.8-1.9,1.9l0,0v35.2c0,1,0.8,1.8,1.8,1.8c0,0,0,0,0,0h35.2&#10;&#9;&#9;c1,0,1.8-0.8,1.8-1.8v-35.2c0-1-0.8-1.8-1.8-1.8c0,0,0,0,0,0H147.5z"/>
	<path class="st0_calculator-72" d="M166.1,289.3l-3.5,3.1l-2.1-2.4l5.7-4.8h3.5v17.5h-3.6V289.3z"/>
	<path class="st2_calculator-72" d="M200.6,272.6h38.5c1.1,0,2,0.9,2,2v38.5c0,1.1-0.9,2-2,2h-38.5c-1.1,0-2-0.9-2-2v-38.5&#10;&#9;&#9;C198.6,273.5,199.5,272.6,200.6,272.6z"/>
	<path class="st0_calculator-72" d="M237.4,317h-35.2c-3,0-5.5-2.5-5.5-5.5v-35.2c0-3,2.5-5.5,5.5-5.5h35.2c3,0,5.5,2.5,5.5,5.5v35.2&#10;&#9;&#9;C242.9,314.5,240.5,317,237.4,317z M202.3,274.5c-1,0-1.8,0.8-1.8,1.9v35.2c0,1,0.8,1.8,1.8,1.8h35.2c1,0,1.8-0.8,1.8-1.8v-35.2&#10;&#9;&#9;c0-1-0.8-1.8-1.8-1.9H202.3z"/>
	<path class="st0_calculator-72" d="M213.7,298.9l6.8-6.1c0.4-0.3,0.7-0.7,1-1.1c0.3-0.4,0.5-0.9,0.5-1.4c0-0.5-0.2-1.1-0.6-1.4&#10;&#9;&#9;c-0.4-0.3-1-0.5-1.5-0.5c-0.6,0-1.2,0.2-1.6,0.6c-0.4,0.4-0.6,1-0.7,1.6l-3.7-0.3c0-0.8,0.2-1.6,0.6-2.4c0.3-0.6,0.8-1.2,1.3-1.7&#10;&#9;&#9;c0.6-0.5,1.2-0.8,1.9-1c0.8-0.2,1.6-0.3,2.4-0.3c0.8,0,1.5,0.1,2.2,0.3c0.7,0.2,1.3,0.6,1.8,1c0.5,0.5,0.9,1,1.2,1.6&#10;&#9;&#9;c0.3,0.7,0.5,1.5,0.4,2.3c0,0.5-0.1,1-0.2,1.5c-0.1,0.4-0.3,0.9-0.5,1.2c-0.2,0.4-0.5,0.7-0.7,1c-0.3,0.3-0.6,0.6-0.9,0.9l-5.3,4.6&#10;&#9;&#9;h7.8v3.3h-12.3V298.9z"/>
	<path class="st2_calculator-72" d="M255.4,272.6h38.5c1.1,0,2,0.9,2,2v38.5c0,1.1-0.9,2-2,2h-38.5c-1.1,0-2-0.9-2-2v-38.5&#10;&#9;&#9;C253.4,273.5,254.3,272.6,255.4,272.6z"/>
	<path class="st0_calculator-72" d="M292.2,317H257c-3,0-5.5-2.5-5.5-5.5v-35.2c0-3,2.5-5.5,5.5-5.5h35.2c3,0,5.5,2.5,5.5,5.5c0,0,0,0,0,0v35.2&#10;&#9;&#9;C297.7,314.5,295.2,317,292.2,317z M257,274.5c-1,0-1.8,0.8-1.8,1.8c0,0,0,0,0,0v35.2c0,1,0.8,1.8,1.8,1.8h35.2&#10;&#9;&#9;c1,0,1.8-0.8,1.8-1.8c0,0,0,0,0,0v-35.2c0-1-0.8-1.9-1.9-1.9l0,0H257z"/>
	<path class="st0_calculator-72" d="M272.9,292h1.2c0.3,0,0.7,0,1-0.1c0.3,0,0.6-0.1,0.9-0.3c0.3-0.1,0.5-0.3,0.7-0.6c0.2-0.3,0.3-0.6,0.2-1&#10;&#9;&#9;c0-0.5-0.2-1-0.6-1.3c-0.4-0.4-1-0.5-1.6-0.5c-0.5,0-1,0.1-1.4,0.5c-0.4,0.3-0.6,0.7-0.7,1.2l-4.1-0.8c0.2-0.7,0.5-1.4,0.9-2&#10;&#9;&#9;c0.4-0.5,0.9-1,1.4-1.3c0.6-0.3,1.2-0.6,1.8-0.7c0.7-0.2,1.4-0.2,2.1-0.2c0.8,0,1.5,0.1,2.2,0.3c0.7,0.2,1.3,0.5,1.9,0.9&#10;&#9;&#9;c0.5,0.4,1,0.9,1.3,1.5c0.3,0.7,0.5,1.4,0.5,2.2c0,0.9-0.2,1.8-0.8,2.5c-0.5,0.7-1.3,1.2-2.2,1.3v0.1c0.5,0.1,1,0.2,1.4,0.5&#10;&#9;&#9;c0.4,0.2,0.7,0.5,1,0.9c0.3,0.4,0.5,0.8,0.6,1.2c0.1,0.5,0.2,1,0.2,1.5c0,0.8-0.2,1.6-0.5,2.3c-0.3,0.6-0.8,1.2-1.4,1.6&#10;&#9;&#9;c-0.6,0.5-1.3,0.8-2,1c-0.8,0.2-1.6,0.3-2.4,0.3c-1.4,0-2.8-0.3-4.1-1.1c-1.2-0.8-2-2-2.2-3.5l3.9-0.9c0.1,0.6,0.4,1.1,0.8,1.5&#10;&#9;&#9;c0.5,0.4,1.2,0.6,1.8,0.5c1.2,0.2,2.2-0.7,2.4-1.8c0-0.1,0-0.3,0-0.4c0-0.4-0.1-0.8-0.3-1.2c-0.2-0.3-0.5-0.5-0.8-0.6&#10;&#9;&#9;c-0.4-0.1-0.7-0.2-1.1-0.2c-0.4,0-0.8,0-1.2,0h-0.9L272.9,292z"/>
	<path class="st2_calculator-72" d="M310.1,272.6h38.5c1.1,0,2,0.9,2,2v38.5c0,1.1-0.9,2-2,2h-38.5c-1.1,0-2-0.9-2-2v-38.5&#10;&#9;&#9;C308.1,273.5,309,272.6,310.1,272.6z"/>
	<path class="st0_calculator-72" d="M347,317h-35.2c-3,0-5.5-2.5-5.5-5.5v-35.2c0-3,2.5-5.5,5.5-5.5c0,0,0,0,0,0H347c3,0,5.5,2.5,5.5,5.5v35.2&#10;&#9;&#9;C352.5,314.5,350,317,347,317L347,317z M311.8,274.5c-1,0-1.9,0.8-1.9,1.9l0,0v35.2c0,1,0.8,1.8,1.8,1.8c0,0,0,0,0,0H347&#10;&#9;&#9;c1,0,1.8-0.8,1.8-1.8v-35.2c0-1-0.8-1.8-1.8-1.8c0,0,0,0,0,0H311.8z"/>
	<path class="st2_calculator-72" d="M145.8,324.5h38.5c1.1,0,2,0.9,2,2V365c0,1.1-0.9,2-2,2h-38.5c-1.1,0-2-0.9-2-2v-38.5&#10;&#9;&#9;C143.8,325.4,144.7,324.5,145.8,324.5z"/>
	<path class="st0_calculator-72" d="M182.7,368.9h-35.2c-3,0-5.5-2.5-5.5-5.5l0,0v-35.2c0-3,2.5-5.5,5.5-5.5l0,0h35.2c3,0,5.5,2.5,5.5,5.5v35.2&#10;&#9;&#9;C188.2,366.4,185.7,368.9,182.7,368.9z M147.5,326.3c-1,0-1.9,0.8-1.9,1.9l0,0v35.2c0,1,0.8,1.9,1.8,1.9h0h35.2&#10;&#9;&#9;c1,0,1.8-0.8,1.8-1.8c0,0,0,0,0,0v-35.2c0-1-0.8-1.8-1.8-1.8c0,0,0,0,0,0H147.5z"/>
	<path class="st0_calculator-72" d="M158.6,343.4c0-1.1,0.1-2.1,0.3-3.2c0.2-1,0.5-2,1-2.9c0.5-0.9,1.2-1.6,2-2.1c2-1.1,4.4-1.1,6.5,0&#10;&#9;&#9;c0.8,0.5,1.5,1.3,2,2.1c0.5,0.9,0.8,1.9,1,2.9c0.4,2.1,0.4,4.3,0,6.4c-0.2,1-0.5,2-1,2.9c-0.5,0.9-1.2,1.6-2,2.1&#10;&#9;&#9;c-2,1.1-4.4,1.1-6.5,0c-0.8-0.5-1.5-1.3-2-2.1c-0.5-0.9-0.8-1.9-1-2.9C158.7,345.5,158.6,344.4,158.6,343.4z M162.3,343.4&#10;&#9;&#9;c0,0.5,0,1,0.1,1.7c0,0.6,0.2,1.3,0.3,1.9c0.2,0.6,0.4,1.1,0.8,1.5c0.9,0.8,2.3,0.8,3.1,0c0.4-0.4,0.7-1,0.9-1.5&#10;&#9;&#9;c0.2-0.6,0.3-1.2,0.3-1.9c0-0.6,0.1-1.2,0.1-1.7s0-1-0.1-1.7c0-0.6-0.1-1.3-0.3-1.9c-0.2-0.6-0.5-1.1-0.9-1.5&#10;&#9;&#9;c-0.9-0.8-2.3-0.8-3.1,0c-0.4,0.4-0.7,1-0.8,1.5c-0.2,0.6-0.3,1.2-0.3,1.9C162.3,342.4,162.3,342.9,162.3,343.4z"/>
	<path class="st2_calculator-72" d="M200.6,324.5h38.5c1.1,0,2,0.9,2,2V365c0,1.1-0.9,2-2,2h-38.5c-1.1,0-2-0.9-2-2v-38.5&#10;&#9;&#9;C198.6,325.4,199.5,324.5,200.6,324.5z"/>
	<path class="st0_calculator-72" d="M237.4,368.9h-35.2c-3,0-5.5-2.5-5.5-5.5v-35.2c0-3,2.5-5.5,5.5-5.5h35.2c3,0,5.5,2.5,5.5,5.5v35.2&#10;&#9;&#9;C242.9,366.4,240.5,368.9,237.4,368.9z M202.3,326.3c-1,0-1.8,0.8-1.8,1.9v35.2c0,1,0.8,1.8,1.8,1.9h35.2c1,0,1.8-0.8,1.8-1.9&#10;&#9;&#9;v-35.2c0-1-0.8-1.8-1.8-1.9L202.3,326.3z"/>
	<path class="st2_calculator-72" d="M255.4,324.5h38.5c1.1,0,2,0.9,2,2V365c0,1.1-0.9,2-2,2h-38.5c-1.1,0-2-0.9-2-2v-38.5&#10;&#9;&#9;C253.4,325.4,254.3,324.5,255.4,324.5z"/>
	<path class="st0_calculator-72" d="M292.2,368.9H257c-3,0-5.5-2.5-5.5-5.5v-35.2c0-3,2.5-5.5,5.5-5.5h35.2c3,0,5.5,2.5,5.5,5.5c0,0,0,0,0,0v35.2&#10;&#9;&#9;C297.7,366.4,295.2,368.8,292.2,368.9z M257,326.3c-1,0-1.8,0.8-1.8,1.8c0,0,0,0,0,0v35.2c0,1,0.8,1.8,1.8,1.8c0,0,0,0,0,0h35.2&#10;&#9;&#9;c1,0,1.9-0.8,1.9-1.9l0,0v-35.2c0-1-0.8-1.9-1.9-1.9l0,0H257z"/>
	<path class="st2_calculator-72" d="M310.1,324.5h38.5c1.1,0,2,0.9,2,2V365c0,1.1-0.9,2-2,2h-38.5c-1.1,0-2-0.9-2-2v-38.5&#10;&#9;&#9;C308.1,325.4,309,324.5,310.1,324.5z"/>
	<path class="st0_calculator-72" d="M347,368.9h-35.2c-3,0-5.5-2.5-5.5-5.5c0,0,0,0,0,0v-35.2c0-3,2.5-5.5,5.5-5.5c0,0,0,0,0,0H347&#10;&#9;&#9;c3,0,5.5,2.5,5.5,5.5v35.2C352.5,366.4,350,368.9,347,368.9z M311.8,326.3c-1,0-1.9,0.8-1.9,1.9l0,0v35.2c0,1,0.8,1.9,1.9,1.9l0,0&#10;&#9;&#9;H347c1,0,1.8-0.8,1.8-1.8c0,0,0,0,0,0v-35.2c0-1-0.8-1.8-1.8-1.8c0,0,0,0,0,0H311.8z"/>
	<circle class="st0_calculator-72" cx="219.9" cy="345.7" r="4.1"/>
	<path class="st0_calculator-72" d="M321.6,199.9c-0.5,0-0.9-0.2-1.3-0.5c-0.7-0.7-0.7-1.9,0-2.6l15.5-15.8c0.7-0.7,1.9-0.7,2.6,0s0.7,1.9,0,2.6&#10;&#9;&#9;l0,0l-15.5,15.8C322.6,199.7,322.1,199.9,321.6,199.9z"/>
	<path class="st0_calculator-72" d="M321.6,251.8c-1,0-1.8-0.8-1.8-1.9c0-0.5,0.2-0.9,0.5-1.2l15.5-15.8c0.7-0.8,1.8-0.8,2.6-0.1&#10;&#9;&#9;c0.8,0.7,0.8,1.8,0.1,2.6c0,0-0.1,0.1-0.1,0.1l-15.5,15.8C322.6,251.6,322.1,251.8,321.6,251.8z"/>
	<path class="st0_calculator-72" d="M337.2,251.8c-0.5,0-1-0.2-1.3-0.6l-15.5-15.8c-0.7-0.7-0.7-1.9,0-2.6s1.9-0.7,2.6,0l0,0l15.5,15.8&#10;&#9;&#9;c0.7,0.7,0.7,1.9,0,2.6C338.1,251.6,337.6,251.8,337.2,251.8z"/>
	<path class="st0_calculator-72" d="M337.4,295.7h-15.9c-1,0-1.8-0.8-1.8-1.8c0-1,0.8-1.8,1.8-1.8h15.9c1,0,1.8,0.8,1.8,1.8&#10;&#9;&#9;C339.2,294.9,338.4,295.7,337.4,295.7z"/>
	<path class="st0_calculator-72" d="M337.4,342.3h-15.9c-1,0-1.8-0.8-1.8-1.8c0-1,0.8-1.8,1.8-1.8h15.9c1,0,1.8,0.8,1.8,1.8&#10;&#9;&#9;C339.2,341.5,338.4,342.3,337.4,342.3z"/>
	<path class="st0_calculator-72" d="M337.4,352.9h-15.9c-1,0-1.8-0.8-1.8-1.8c0-1,0.8-1.8,1.8-1.8h15.9c1,0,1.8,0.8,1.8,1.8&#10;&#9;&#9;C339.2,352.1,338.4,352.9,337.4,352.9z"/>
	<path class="st0_calculator-72" d="M282.6,347.6h-15.9c-1,0-1.8-0.8-1.8-1.8c0-1,0.8-1.8,1.8-1.8h15.9c1,0,1.8,0.8,1.8,1.8&#10;&#9;&#9;C284.4,346.8,283.6,347.6,282.6,347.6L282.6,347.6z"/>
	<path class="st0_calculator-72" d="M274.6,355.5c-1,0-1.8-0.8-1.8-1.8v-15.9c0-1,0.8-1.8,1.8-1.8c1,0,1.8,0.8,1.8,1.8v15.9&#10;&#9;&#9;C276.5,354.7,275.6,355.5,274.6,355.5L274.6,355.5z"/>
	<rect x="143.8" y="105.5" class="st3_calculator-72" width="206.8" height="47.6"/>
	<path class="st0_calculator-72" d="M350.6,154.9H143.8c-1,0-1.8-0.8-1.8-1.8l0,0v-47.6c0-1,0.8-1.8,1.8-1.8l0,0h206.8c1,0,1.8,0.8,1.8,1.8v47.6&#10;&#9;&#9;C352.5,154.1,351.7,154.9,350.6,154.9z M145.6,151.3h203.2v-43.9H145.6V151.3z"/>
	<path class="st4_calculator-72" d="M328.8,145.9h-7.6c-3.3,0-6.1-2.7-6.1-6.1V118c0-3.3,2.7-6.1,6.1-6.1h7.6c3.3,0,6.1,2.7,6.1,6.1v21.8&#10;&#9;&#9;C334.8,143.2,332.1,145.9,328.8,145.9z M321.2,115.6c-1.3,0-2.4,1.1-2.4,2.4v21.8c0,1.3,1.1,2.4,2.4,2.4h7.6c1.3,0,2.4-1.1,2.4-2.4&#10;&#9;&#9;V118c0-1.3-1.1-2.4-2.4-2.4L321.2,115.6z"/>
	<path class="st4_calculator-72" d="M332.2,144.1c-0.6,0-1.2-0.3-1.6-0.9L315.5,119c-0.6-0.8-0.4-2,0.5-2.5c0.8-0.6,2-0.4,2.5,0.5&#10;&#9;&#9;c0,0,0.1,0.1,0.1,0.1l15.2,24.3c0.5,0.9,0.3,2-0.6,2.5c0,0,0,0,0,0C332.9,144.1,332.5,144.2,332.2,144.1z"/>
</g>
</svg>