<svg version="1.1" id="Layer_1" xmlns="http://www.w3.org/2000/svg" xmlns:xlink="http://www.w3.org/1999/xlink" x="0px" y="0px" viewBox="0 0 500 500" style="width: 166px;" xml:space="preserve" data-imageid="scientist-14" imageName="Scientist" class="illustrations_image">
<style type="text/css">
	.st0_scientist-14{fill:#68E1FD;}
	.st1_scientist-14{fill:#093F68;}
	.st2_scientist-14{fill:#FFFFFF;}
	.st3_scientist-14{fill:#725858;}
	.st4_scientist-14{fill:#FFC9B0;}
	.st5_scientist-14{fill:#FFBC0E;}
	.st6_scientist-14{fill:#70CC40;}
	.st7_scientist-14{fill:#F56132;}
	.st8_scientist-14{fill:#DFEAEF;}
</style>
<g id="character_scientist-14">
	<path class="st0_scientist-14 targetColor" d="M374.5,300.7c-0.9-9.8-9.6-17.1-19.5-16.2c-9.6,0.9-16.7,9.2-16.2,18.8c1.5,21.3,0.6,44.3-1.9,57.3&#10;&#9;&#9;c-5.9-7.8-30.3-61.5-54.7-73.8c-24.1-12.2-52.6-10.4-68.1-2.4c-18.6,9.6-46.6,68.3-52.5,76.2c-2.5-13-3.4-36.1-1.9-57.3&#10;&#9;&#9;c0.7-9.9-6.7-18.4-16.6-19.1c-9.9-0.7-18.4,6.7-19.1,16.6l0,0c-0.9,14-1,28-0.3,42.1c1.4,25.1,5.9,54.6,28.9,59.6&#10;&#9;&#9;c1.9,0.4,3.9,0.7,5.9,0.7c12.5,0,24.4-15.6,43-36.1v44.4h93v-42.9c19.4,24,32.2,34.5,45.6,34.5c2,0,4-0.2,5.9-0.7&#10;&#9;&#9;c23-5.1,27.5-34.5,28.9-59.6C375.5,328.7,375.4,314.7,374.5,300.7z" style="fill: rgb(87, 73, 253);"/>
	<path class="st1_scientist-14" d="M294.3,413.4h-93c-1.1,0-2-0.9-2-2v-39.2l-3.6,4c-14.9,16.8-25.7,28.9-37.4,28.9c-2.1,0-4.3-0.2-6.4-0.7&#10;&#9;&#9;c-24.3-5.4-29-35.7-30.4-61.5c-0.7-14.1-0.6-28.2,0.3-42.3c0.8-11,10.3-19.2,21.3-18.4s19.2,10.3,18.4,21.3&#10;&#9;&#9;c-1.3,17.8-0.8,38,1.1,51.7c1.5-2.6,3.4-6,5.5-9.8c11.4-20.6,30.6-55.2,45-62.6c16-8.3,45.2-10.1,69.9,2.4&#10;&#9;&#9;c19.3,9.8,38.4,44.3,48.7,62.9c1.5,2.7,2.9,5.1,4,7.1c1.9-13.6,2.3-33.9,1.1-51.7c-0.8-11,7.5-20.5,18.4-21.3s20.5,7.5,21.3,18.4&#10;&#9;&#9;c0.9,14.1,1,28.2,0.3,42.3c-1.4,25.8-6.2,56.1-30.4,61.5c-2.1,0.5-4.2,0.7-6.4,0.7c-12.8,0-24.9-8.5-43.7-31v37.4&#10;&#9;&#9;C296.3,412.5,295.4,413.4,294.3,413.4C294.3,413.4,294.3,413.4,294.3,413.4z M203.3,409.4h89v-40.9c0-1.1,0.9-2,2-2&#10;&#9;&#9;c0.6,0,1.1,0.3,1.5,0.7c20,24.7,31.9,33.8,44.1,33.8c1.8,0,3.7-0.2,5.5-0.6c21.7-4.8,26-33.4,27.3-57.8c0.7-13.9,0.6-27.9-0.3-41.8&#10;&#9;&#9;l0,0c-0.8-8.8-8.6-15.2-17.3-14.4c-8.5,0.8-14.9,8.1-14.4,16.7c1.5,20.8,0.7,44.1-2,57.9c-0.2,0.8-0.7,1.4-1.5,1.6&#10;&#9;&#9;c-0.8,0.2-1.5-0.1-2-0.7c-1.5-1.9-3.8-6.1-7-11.9c-10.1-18.2-28.8-52.1-47-61.3c-23.5-11.9-51.2-10.2-66.3-2.4&#10;&#9;&#9;c-13.3,6.9-32.9,42.1-43.3,61c-4,7.2-6.9,12.5-8.5,14.6c-0.7,0.9-1.9,1-2.8,0.4c-0.4-0.3-0.6-0.7-0.7-1.2c-2.7-13.8-3.5-37-2-57.9&#10;&#9;&#9;c0.5-8.8-6.3-16.3-15.1-16.7c-8.5-0.4-15.9,5.9-16.7,14.4c-0.9,13.9-1,27.9-0.3,41.8c1.3,24.4,5.7,53,27.3,57.8&#10;&#9;&#9;c1.8,0.4,3.6,0.6,5.5,0.6c9.9,0,20.2-11.6,34.4-27.5c2.2-2.5,4.6-5.2,7-7.9c0.8-0.8,2-0.8,2.8-0.1c0.4,0.4,0.6,0.9,0.6,1.4&#10;&#9;&#9;L203.3,409.4z"/>
	<rect x="236.8" y="286.7" class="st2_scientist-14" width="23" height="124.7"/>
	<path class="st1_scientist-14" d="M259.7,413.4h-23c-1.1,0-2-0.9-2-2V286.7c0-1.1,0.9-2,2-2h23c1.1,0,2,0.9,2,2v124.7&#10;&#9;&#9;C261.7,412.5,260.8,413.4,259.7,413.4z M238.7,409.4h19V288.7h-19V409.4z"/>
	<path class="st1_scientist-14" d="M201.4,369c-0.9,0-1.7-0.6-1.9-1.4c-0.4-1.3-9-31.8,5.9-54.3c0.5-1,1.7-1.4,2.7-0.9s1.4,1.7,0.9,2.7&#10;&#9;&#9;c-0.1,0.1-0.2,0.3-0.3,0.4c-13.9,21-5.4,50.7-5.4,51c0.3,1.1-0.3,2.2-1.4,2.5C201.7,369,201.5,369,201.4,369z"/>
	<path class="st1_scientist-14" d="M295,369c-0.2,0-0.4,0-0.6-0.1c-1.1-0.3-1.7-1.3-1.5-2.4c0,0,0-0.1,0-0.1c0.1-0.3,8.5-30.1-5.4-51&#10;&#9;&#9;c-0.7-0.9-0.6-2.1,0.3-2.8c0.9-0.7,2.1-0.6,2.8,0.3c0.1,0.1,0.2,0.2,0.2,0.4c14.9,22.5,6.2,53,5.9,54.3&#10;&#9;&#9;C296.6,368.4,295.9,368.9,295,369z"/>
	<path class="st1_scientist-14" d="M236.8,349.3c-0.4,0-0.8-0.1-1.1-0.3L215,335.4c-0.5-0.3-0.8-0.8-0.9-1.4c-0.1-0.6,0.1-1.1,0.5-1.6l11.7-13.7&#10;&#9;&#9;l-12.4-12.3c-0.7-0.7-0.8-1.9-0.2-2.6l20-25.1c0.8-0.8,2-0.8,2.8-0.1c0.7,0.7,0.8,1.8,0.3,2.6L218,304.9l12.4,12.3&#10;&#9;&#9;c0.7,0.7,0.8,1.9,0.1,2.7l-11.4,13.4l18.8,12.4c0.9,0.6,1.1,1.9,0.5,2.8C238,349,237.4,349.3,236.8,349.3z"/>
	<path class="st1_scientist-14" d="M261,349.3c-1.1,0-2-0.9-2-2c0-0.6,0.3-1.3,0.9-1.6l18.8-12.4l-11.4-13.4c-0.7-0.8-0.6-2,0.1-2.7l12.4-12.3&#10;&#9;&#9;L261,281.1c-0.7-0.9-0.5-2.1,0.3-2.8c0.9-0.7,2.1-0.5,2.8,0.3l20,25.1c0.6,0.8,0.6,1.9-0.1,2.6l-12.4,12.3l11.7,13.7&#10;&#9;&#9;c0.4,0.4,0.5,1,0.5,1.6c-0.1,0.6-0.4,1.1-0.9,1.4L262.1,349C261.8,349.2,261.4,349.3,261,349.3z"/>
	<path class="st1_scientist-14" d="M210.9,401.1c-1.1,0-2-0.9-2-2c0-0.8,0.5-1.4,1.1-1.8l15.2-6.7c1-0.5,2.2-0.2,2.7,0.8c0.5,1,0.2,2.2-0.8,2.7&#10;&#9;&#9;c-0.1,0.1-0.2,0.1-0.4,0.2l-15.2,6.7C211.4,401,211.1,401.1,210.9,401.1z"/>
	<path class="st1_scientist-14" d="M289,401.1c-0.3,0-0.5-0.1-0.8-0.2l-15.2-6.7c-1-0.6-1.3-1.8-0.7-2.7c0.5-0.8,1.4-1.2,2.3-0.9l15.2,6.7&#10;&#9;&#9;c1,0.5,1.4,1.7,1,2.7C290.4,400.6,289.8,401,289,401.1L289,401.1z"/>
	<g id="character-2_scientist-14">
		<path class="st3_scientist-14" d="M324.6,167.7v105h-12.1c-2.9-7.4-7-17.8-7.4-18.1s-3.4,10.5-5.6,18.1H191.6l-4.5-18.1c0,0-1.6,10.6-2.9,18.1&#10;&#9;&#9;&#9;h-17.7v-105c0.5-43.7,36.3-78.7,80-78.2C289.4,90,324.2,124.7,324.6,167.7L324.6,167.7z"/>
		<path class="st1_scientist-14" d="M324.6,274.7h-12.1c-0.8,0-1.5-0.5-1.9-1.3c-2.6-6.7-4.3-10.9-5.4-13.5c-0.8,2.6-2,6.8-3.8,13.3&#10;&#9;&#9;&#9;c-0.2,0.9-1,1.4-1.9,1.5H191.6c-0.9,0-1.7-0.6-1.9-1.5l-2.1-8.5c-0.4,2.8-0.9,5.8-1.4,8.4c-0.2,1-1,1.7-2,1.6h-17.7&#10;&#9;&#9;&#9;c-1.1,0-2-0.9-2-2v-105c0.5-44.8,37.2-80.7,82-80.2c44.1,0.5,79.7,36.1,80.2,80.2v105C326.6,273.8,325.7,274.7,324.6,274.7z&#10;&#9;&#9;&#9; M313.9,270.7h8.7v-103c-0.5-42.6-35.4-76.7-78-76.2c-41.9,0.5-75.8,34.3-76.2,76.2v103h14c1.2-7.2,2.6-16.3,2.6-16.4&#10;&#9;&#9;&#9;c0.1-0.9,0.9-1.6,1.9-1.7c0.9,0,1.8,0.6,2,1.5l4.2,16.6h105c4.9-17.6,5.1-17.7,6.5-18c0.7-0.2,1.4,0,1.9,0.5&#10;&#9;&#9;&#9;C307,253.6,307.3,253.8,313.9,270.7L313.9,270.7z"/>
		<path class="st4_scientist-14" d="M239.3,274.1h17.5c1.5,0,2.7,1.2,2.7,2.7c0,0,0,0,0,0v12.7c0,4.2-3.4,7.6-7.6,7.6h0h-7.7&#10;&#9;&#9;&#9;c-4.2,0-7.6-3.4-7.6-7.6l0,0v-12.7C236.6,275.3,237.8,274.1,239.3,274.1L239.3,274.1z"/>
		<path class="st1_scientist-14" d="M249.8,299.1h-3.4c-6.5,0-11.8-5.3-11.8-11.8v-13.3c0-1.1,0.9-2,2-2h23c1.1,0,2,0.9,2,2v13.3&#10;&#9;&#9;&#9;C261.6,293.9,256.3,299.1,249.8,299.1C249.8,299.1,249.8,299.1,249.8,299.1z M238.6,276.1v11.3c0,4.3,3.5,7.8,7.8,7.8h3.4&#10;&#9;&#9;&#9;c4.3,0,7.8-3.5,7.8-7.8v-11.3L238.6,276.1z"/>
		<ellipse class="st4_scientist-14" cx="182.4" cy="214.3" rx="22.3" ry="19.3"/>
		<path class="st1_scientist-14" d="M182.4,235.5c-13.4,0-24.3-9.5-24.3-21.3S169,193,182.4,193s24.3,9.5,24.3,21.3S195.8,235.5,182.4,235.5z&#10;&#9;&#9;&#9; M182.4,197c-11.2,0-20.3,7.8-20.3,17.3s9.1,17.3,20.3,17.3s20.3-7.8,20.3-17.3S193.6,197,182.4,197L182.4,197z"/>
		<ellipse class="st4_scientist-14" cx="312.5" cy="214.3" rx="22.3" ry="19.3"/>
		<path class="st1_scientist-14" d="M312.5,235.5c-13.4,0-24.3-9.5-24.3-21.3s10.9-21.3,24.3-21.3s24.3,9.5,24.3,21.3S326,235.5,312.5,235.5z&#10;&#9;&#9;&#9; M312.5,197c-11.2,0-20.3,7.8-20.3,17.3s9.1,17.3,20.3,17.3s20.3-7.8,20.3-17.3S323.8,197,312.5,197L312.5,197z"/>
		<path class="st4_scientist-14" d="M248.1,277.1L248.1,277.1c-37.2,0-67.4-30.3-67.3-67.5c0,0,0,0,0,0v-31.2c0-16.2,24.7-46.5,40.9-46.5&#10;&#9;&#9;&#9;c0,0,23.9,31.2,93.8,22.9v54.9C315.5,246.8,285.3,277.1,248.1,277.1C248.1,277.1,248.1,277.1,248.1,277.1z"/>
		<path class="st1_scientist-14" d="M248.1,279.1c-38.3-0.1-69.3-31.2-69.3-69.5v-31.2c0-8.2,5.7-19.9,14.9-30.6c9.6-11.2,20-17.9,28-17.9&#10;&#9;&#9;&#9;c0.6,0,1.2,0.3,1.6,0.8c0.2,0.3,24.2,30.2,91.9,22.1c1.1-0.1,2.1,0.7,2.2,1.8c0,0.1,0,0.2,0,0.2v54.9&#10;&#9;&#9;&#9;C317.4,247.9,286.4,279,248.1,279.1z M220.8,133.9c-6.7,0.5-15.8,6.7-24.1,16.4c-8.4,9.9-13.9,20.9-13.9,28.1v31.2&#10;&#9;&#9;&#9;c-0.4,36.1,28.4,65.7,64.5,66.1s65.7-28.4,66.1-64.5c0-0.5,0-1.1,0-1.6v-52.7C250.3,163.8,225.1,138.9,220.8,133.9z"/>
		<path class="st5_scientist-14" d="M321.4,171.2v33.1c0,4-2.9,7.5-6.9,8.1l-45.5,6.9c-2.6,0.4-5.2-0.5-7-2.3l-8.2-8.2c-3.2-3.2-8.3-3.2-11.5,0&#10;&#9;&#9;&#9;c0,0,0,0,0,0l-8.2,8.2c-1.8,1.8-4.4,2.7-7,2.3l-45.5-6.9c-4-0.6-6.9-4-6.9-8.1v-33.1c0-4.5,3.6-8.1,8.1-8.1c0,0,0,0,0,0h130.5&#10;&#9;&#9;&#9;C317.8,163.1,321.4,166.7,321.4,171.2z"/>
		<path class="st1_scientist-14" d="M228.3,221.3c-0.5,0-1,0-1.5-0.1l-45.5-6.9c-5-0.7-8.6-5-8.6-10v-33.1c0-5.6,4.5-10.1,10.1-10.1h130.4&#10;&#9;&#9;&#9;c5.6,0,10.1,4.5,10.1,10.1v33.1c0,5-3.7,9.3-8.6,10l-45.5,6.9c-3.2,0.5-6.4-0.6-8.7-2.9l-8.2-8.2c-1.2-1.2-2.7-1.8-4.4-1.8l0,0&#10;&#9;&#9;&#9;c-1.6,0-3.2,0.7-4.4,1.8l-8.2,8.2C233.6,220.2,231,221.3,228.3,221.3z M182.9,165c-3.4,0-6.1,2.8-6.1,6.1v33.1&#10;&#9;&#9;&#9;c0,3,2.2,5.6,5.2,6.1l45.5,6.9c1.9,0.3,3.9-0.3,5.3-1.7l8.2-8.2c1.9-1.9,4.5-3,7.2-3l0,0c2.7,0,5.3,1.1,7.2,3l8.2,8.2&#10;&#9;&#9;&#9;c1.4,1.4,3.3,2,5.3,1.7l45.5-6.9c3-0.4,5.2-3,5.2-6.1v-33c0-3.4-2.8-6.1-6.2-6.1L182.9,165z"/>
		<ellipse class="st1_scientist-14" cx="216.9" cy="199.8" rx="6.2" ry="6.2"/>
		<ellipse class="st1_scientist-14" cx="281.2" cy="199.8" rx="6.2" ry="6.2"/>
		<path class="st2_scientist-14" d="M272.6,230c0,13.6-11,24.6-24.5,24.6s-24.6-11-24.6-24.5c0,0,0,0,0,0H272.6z"/>
		<path class="st1_scientist-14" d="M248.1,256.6c-14.7,0-26.5-11.9-26.6-26.6c0-1.1,0.9-2,2-2h49.1c1.1,0,2,0.9,2,2&#10;&#9;&#9;&#9;C274.6,244.7,262.8,256.6,248.1,256.6z M225.6,232c1,12.4,11.8,21.7,24.3,20.7c11.1-0.9,19.9-9.7,20.7-20.7H225.6z"/>
		<path class="st1_scientist-14" d="M247.8,222.8c-2,0-4.1-0.2-6.1-0.5c-1.1-0.3-1.7-1.4-1.4-2.5c0.3-0.9,1.1-1.5,2.1-1.5c0.1,0,5.4,0.9,9.2,0.1&#10;&#9;&#9;&#9;c0.4-1.8-2-8.5-5.2-14.7c-0.5-1-0.1-2.2,0.9-2.7c1-0.5,2.2-0.1,2.7,0.9c2.2,4.2,7.1,14.4,5.3,18.4c-0.4,1-1.3,1.7-2.3,1.9&#10;&#9;&#9;&#9;C251.2,222.6,249.5,222.8,247.8,222.8z"/>
		<path class="st1_scientist-14" d="M199.9,184.7c-2.2,0-4-1.8-4-4c0-2.2,1.8-4,4-4l29.7-0.4l0,0c2.2,0,4,1.8,4,4c0,2.2-1.8,4-4,4L199.9,184.7z"/>
		<path class="st1_scientist-14" d="M299,184.1L299,184.1l-29.8-0.1c-2.2,0-4-1.8-4-4s1.8-4,4-4l29.7,0.2c2.2,0,4,1.8,4,4S301.1,184.2,299,184.1&#10;&#9;&#9;&#9;L299,184.1z"/>
	</g>
</g>
<g id="hand-1_scientist-14">
	<path class="st2_scientist-14" d="M111.6,361.8l23.9-44.2v-43.9h18.7v43.9l23.9,44.2c2.2,4.1,0.7,9.3-3.4,11.6c-1.2,0.7-2.6,1-4.1,1h-51.6&#10;&#9;&#9;c-4.7,0-8.5-3.8-8.5-8.5C110.6,364.4,110.9,363,111.6,361.8z"/>
	<path class="st1_scientist-14" d="M170.7,376.4h-51.6c-5.8,0-10.5-4.7-10.5-10.5c0-1.8,0.4-3.5,1.3-5l23.7-43.7v-43.4c0-1.1,0.9-2,2-2h18.7&#10;&#9;&#9;c1.1,0,2,0.9,2,2v43.4l23.7,43.7c2.8,5.1,0.9,11.5-4.2,14.3C174.2,375.9,172.4,376.4,170.7,376.4L170.7,376.4z M137.5,275.7v41.9&#10;&#9;&#9;c0,0.3-0.1,0.7-0.2,1l-23.9,44.2l0,0c-1.7,3.2-0.6,7.1,2.6,8.9c1,0.5,2,0.8,3.1,0.8h51.6c3.6,0,6.5-2.9,6.5-6.5&#10;&#9;&#9;c0-1.1-0.3-2.2-0.8-3.1l-23.9-44.2c-0.2-0.3-0.2-0.6-0.2-1v-41.9H137.5z M111.6,361.8L111.6,361.8z"/>
	<path class="st6_scientist-14" d="M111.6,361.8l9.8-18.1c0,0,10.2-8.3,21.6-0.7c10.2,6.9,22.2-5.2,22.2-5.2l13,24c2.2,4.1,0.7,9.3-3.4,11.6&#10;&#9;&#9;c-1.2,0.7-2.6,1-4.1,1h-51.6c-4.7,0-8.5-3.8-8.5-8.5C110.5,364.5,110.9,363.1,111.6,361.8z"/>
	<path class="st1_scientist-14" d="M170.7,376.4h-51.6c-5.8,0-10.5-4.7-10.5-10.5c0-1.8,0.4-3.5,1.3-5l9.8-18.1c0.1-0.2,0.3-0.4,0.5-0.6&#10;&#9;&#9;c0.1-0.1,11.5-9.2,24-0.8c8.8,5.9,19.5-4.8,19.6-4.9c0.8-0.8,2-0.8,2.8,0c0.1,0.1,0.2,0.3,0.3,0.4l13,24c2.8,5.1,0.9,11.5-4.2,14.3&#10;&#9;&#9;C174.2,376,172.5,376.4,170.7,376.4L170.7,376.4z M123,345l-9.6,17.7l0,0c-1.7,3.2-0.6,7.1,2.6,8.9c1,0.5,2,0.8,3.1,0.8h51.6&#10;&#9;&#9;c3.6,0,6.5-2.9,6.5-6.5c0-1.1-0.3-2.2-0.8-3.1L164.6,341c-4.1,3.3-13.8,9.7-22.7,3.7C132.8,338.6,124.6,343.8,123,345z&#10;&#9;&#9; M111.6,361.8L111.6,361.8z"/>
	<path class="st4_scientist-14" d="M149.7,296.7h-24.6c-1.5,0-2.6-1.2-2.6-2.6v-5.2c0-1.5,1.2-2.6,2.6-2.6h24.6c1.5,0,2.6,1.2,2.6,2.6v5.2&#10;&#9;&#9;C152.3,295.6,151.1,296.7,149.7,296.7z"/>
	<path class="st1_scientist-14" d="M147.1,298.7h-19.4c-4-0.1-7.1-3.5-6.9-7.5c0.1-3.8,3.2-6.8,6.9-6.9h19.4c4-0.1,7.3,3,7.5,6.9s-3,7.3-6.9,7.5&#10;&#9;&#9;C147.4,298.7,147.3,298.7,147.1,298.7z M127.7,288.3c-1.8,0.1-3.2,1.6-3.1,3.4c0.1,1.6,1.4,3,3.1,3.1h19.4c1.8,0.1,3.3-1.3,3.4-3.1&#10;&#9;&#9;s-1.3-3.3-3.1-3.4c-0.1,0-0.2,0-0.4,0H127.7z"/>
	<path class="st4_scientist-14" d="M162.9,287v24.6c0,1.5-1.2,2.6-2.6,2.6h-5.2c-1.5,0-2.6-1.2-2.6-2.6V287c0-1.5,1.2-2.6,2.6-2.6h5.2&#10;&#9;&#9;C161.8,284.4,162.9,285.6,162.9,287z"/>
	<path class="st1_scientist-14" d="M157.7,316.3c-4,0-7.2-3.2-7.2-7.2v-19.4c0-4,3.2-7.2,7.2-7.2s7.2,3.2,7.2,7.2v19.4&#10;&#9;&#9;C164.9,313,161.7,316.3,157.7,316.3z M157.7,286.4c-1.8,0-3.2,1.5-3.2,3.2v19.4c0,1.8,1.5,3.2,3.2,3.2c1.8,0,3.2-1.4,3.2-3.2v-19.4&#10;&#9;&#9;C161,287.9,159.5,286.4,157.7,286.4C157.7,286.4,157.7,286.4,157.7,286.4z"/>
	<path class="st4_scientist-14" d="M149.7,307.2h-24.6c-1.5,0-2.6-1.2-2.6-2.6v-5.2c0-1.5,1.2-2.6,2.6-2.6h24.6c1.5,0,2.6,1.2,2.6,2.6v5.2&#10;&#9;&#9;C152.3,306,151.1,307.2,149.7,307.2z"/>
	<path class="st1_scientist-14" d="M147.1,309.2h-19.4c-4,0-7.2-3.2-7.2-7.2s3.2-7.2,7.2-7.2l0,0h19.4c4,0,7.2,3.2,7.2,7.2&#10;&#9;&#9;S151.1,309.2,147.1,309.2z M127.7,298.7c-1.8,0-3.2,1.5-3.2,3.2c0,1.8,1.5,3.2,3.2,3.2h19.4c1.8,0,3.2-1.5,3.2-3.2&#10;&#9;&#9;c0-1.8-1.5-3.2-3.2-3.2l0,0H127.7z"/>
	<path class="st4_scientist-14" d="M149.7,317.6h-24.6c-1.5,0-2.6-1.2-2.6-2.6v-5.2c0-1.5,1.2-2.6,2.6-2.6h24.6c1.5,0,2.6,1.2,2.6,2.6v5.2&#10;&#9;&#9;C152.3,316.5,151.1,317.6,149.7,317.6z"/>
	<path class="st1_scientist-14" d="M147.1,319.6h-19.4c-4-0.1-7.1-3.5-6.9-7.5c0.1-3.8,3.2-6.8,6.9-6.9h19.4c4-0.1,7.3,3,7.5,6.9s-3,7.3-6.9,7.5&#10;&#9;&#9;C147.4,319.6,147.3,319.6,147.1,319.6z M127.7,309.2c-1.8,0-3.2,1.5-3.2,3.2c0,1.8,1.5,3.2,3.2,3.2h19.4c1.8,0,3.2-1.5,3.2-3.2&#10;&#9;&#9;c0-1.8-1.5-3.2-3.2-3.2l0,0H127.7z"/>
	<path class="st4_scientist-14" d="M149.7,328.1h-24.6c-1.5,0-2.6-1.2-2.6-2.6v-5.2c0-1.5,1.2-2.6,2.6-2.6h24.6c1.5,0,2.6,1.2,2.6,2.6v5.2&#10;&#9;&#9;C152.3,326.9,151.1,328.1,149.7,328.1z"/>
	<path class="st1_scientist-14" d="M147.1,330.1h-19.4c-4-0.1-7.1-3.5-6.9-7.5c0.1-3.8,3.2-6.8,6.9-6.9h19.4c4-0.1,7.3,3,7.5,6.9s-3,7.3-6.9,7.5&#10;&#9;&#9;C147.4,330.1,147.3,330.1,147.1,330.1z M127.7,319.6c-1.8,0-3.2,1.5-3.2,3.2c0,1.8,1.5,3.2,3.2,3.2h19.4c1.8,0,3.2-1.5,3.2-3.2&#10;&#9;&#9;c0-1.8-1.5-3.2-3.2-3.2l0,0H127.7z"/>
	<path class="st2_scientist-14" d="M157.7,273.7H132c-1,0-1.9-0.8-1.9-1.9v-6c0-1,0.8-1.9,1.9-1.9h25.7c1,0,1.9,0.8,1.9,1.9v6&#10;&#9;&#9;C159.6,272.9,158.8,273.7,157.7,273.7z"/>
	<path class="st1_scientist-14" d="M155.9,275.7h-22c-3.1,0-5.7-2.5-5.7-5.7v-2.3c0-3.1,2.5-5.7,5.7-5.7h22c3.1,0,5.7,2.5,5.7,5.7v2.3&#10;&#9;&#9;C161.6,273.2,159,275.7,155.9,275.7z M133.9,266c-0.9,0-1.7,0.8-1.7,1.7v2.3c0,0.9,0.8,1.7,1.7,1.7h22c0.9,0,1.7-0.8,1.7-1.7l0,0&#10;&#9;&#9;v-2.3c0-0.9-0.8-1.7-1.7-1.7l0,0H133.9z"/>
</g>
<g id="hand-2_scientist-14">
	<path class="st2_scientist-14" d="M386.8,361.8l-23.9-44.2v-43.9h-18.7v43.9l-23.9,44.2c-2.2,4.1-0.7,9.3,3.4,11.6c1.2,0.7,2.6,1,4.1,1h51.6&#10;&#9;&#9;c4.7,0,8.5-3.8,8.5-8.5C387.8,364.5,387.5,363.1,386.8,361.8z"/>
	<path class="st1_scientist-14" d="M379.3,376.4h-51.6c-5.8,0-10.5-4.7-10.5-10.5c0-1.7,0.4-3.5,1.3-5l23.7-43.7v-43.4c0-1.1,0.9-2,2-2h18.7&#10;&#9;&#9;c1.1,0,2,0.9,2,2v43.4l23.7,43.7c2.8,5.1,0.9,11.5-4.2,14.3C382.8,375.9,381.1,376.4,379.3,376.4L379.3,376.4z M346.2,275.7v41.9&#10;&#9;&#9;c0,0.3-0.1,0.7-0.2,1L322,362.8c-1.7,3.2-0.6,7.1,2.6,8.9c1,0.5,2,0.8,3.1,0.8h51.5c3.6,0,6.5-2.9,6.5-6.5c0-1.1-0.3-2.2-0.8-3.1&#10;&#9;&#9;l0,0l-23.9-44.2c-0.2-0.3-0.2-0.6-0.2-1v-41.9H346.2z"/>
	<path class="st7_scientist-14" d="M386.8,361.8l-9.8-18.1c0,0-10.2-8.3-21.6-0.7c-10.2,6.9-22.1-5.2-22.1-5.2l-13,24c-2.2,4.1-0.7,9.3,3.4,11.6&#10;&#9;&#9;c1.2,0.7,2.6,1,4.1,1h51.6c4.7,0,8.5-3.8,8.5-8.5C387.9,364.5,387.5,363.1,386.8,361.8z"/>
	<path class="st1_scientist-14" d="M379.3,376.4h-51.6c-5.8,0-10.5-4.7-10.5-10.5c0-1.7,0.4-3.5,1.3-5l13-24c0.3-0.5,0.9-0.9,1.5-1&#10;&#9;&#9;c0.6-0.1,1.2,0.1,1.7,0.6c0.1,0.1,10.9,10.8,19.6,4.9c12.5-8.4,23.9,0.7,24,0.8c0.2,0.2,0.4,0.4,0.5,0.6l9.8,18.1&#10;&#9;&#9;c2.8,5.1,0.9,11.5-4.2,14.3C382.8,375.9,381.1,376.4,379.3,376.4L379.3,376.4z M333.8,341L322,362.8c-1.7,3.2-0.6,7.1,2.6,8.9&#10;&#9;&#9;c1,0.5,2,0.8,3.1,0.8h51.5c3.6,0,6.5-2.9,6.5-6.5c0-1.1-0.3-2.2-0.8-3.1l0,0l-9.6-17.8c-1.6-1.2-9.8-6.5-19-0.4&#10;&#9;&#9;C347.5,350.7,337.9,344.3,333.8,341z"/>
	<path class="st4_scientist-14" d="M348.7,286.3h24.6c1.5,0,2.6,1.2,2.6,2.6v5.2c0,1.5-1.2,2.6-2.6,2.6h-24.6c-1.5,0-2.6-1.2-2.6-2.6v-5.2&#10;&#9;&#9;C346.1,287.5,347.2,286.3,348.7,286.3z"/>
	<path class="st1_scientist-14" d="M370.7,298.7h-19.4c-4-0.1-7.1-3.5-6.9-7.5c0.1-3.8,3.2-6.8,6.9-6.9h19.4c4-0.1,7.3,3,7.5,6.9&#10;&#9;&#9;c0.1,4-3,7.3-6.9,7.5C371.1,298.7,370.9,298.7,370.7,298.7L370.7,298.7z M351.3,288.3c-1.8-0.1-3.3,1.3-3.4,3.1s1.3,3.3,3.1,3.4&#10;&#9;&#9;c0.1,0,0.2,0,0.4,0h19.4c1.8,0.1,3.3-1.3,3.4-3.1s-1.3-3.3-3.1-3.4c-0.1,0-0.2,0-0.4,0H351.3z"/>
	<path class="st4_scientist-14" d="M345.9,287v24.6c0,1.5-1.2,2.6-2.6,2.6h-5.2c-1.5,0-2.6-1.2-2.6-2.6V287c0-1.5,1.2-2.6,2.6-2.6h5.2&#10;&#9;&#9;C344.7,284.4,345.9,285.6,345.9,287z"/>
	<path class="st1_scientist-14" d="M340.7,316.3c-4,0-7.2-3.2-7.2-7.2v-19.4c-0.1-4,3-7.3,6.9-7.5c4-0.1,7.3,3,7.5,6.9c0,0.2,0,0.4,0,0.5v19.4&#10;&#9;&#9;C347.9,313,344.7,316.3,340.7,316.3z M340.7,286.4c-1.8,0-3.2,1.5-3.2,3.2v19.4c0,1.8,1.5,3.2,3.2,3.2c1.8,0,3.2-1.5,3.2-3.2v-19.4&#10;&#9;&#9;C343.9,287.9,342.5,286.4,340.7,286.4z"/>
	<path class="st4_scientist-14" d="M348.7,296.7h24.6c1.5,0,2.6,1.2,2.6,2.6v5.2c0,1.5-1.2,2.6-2.6,2.6h-24.6c-1.5,0-2.6-1.2-2.6-2.6v-5.2&#10;&#9;&#9;C346.1,297.9,347.2,296.7,348.7,296.7z"/>
	<path class="st1_scientist-14" d="M370.7,309.2h-19.4c-4,0-7.2-3.2-7.2-7.2s3.2-7.2,7.2-7.2h19.4c4,0,7.2,3.2,7.2,7.2S374.7,309.2,370.7,309.2&#10;&#9;&#9;L370.7,309.2z M351.3,298.7c-1.8,0-3.2,1.5-3.2,3.2c0,1.8,1.5,3.2,3.2,3.2h19.4c1.8,0,3.2-1.5,3.2-3.2c0-1.8-1.5-3.2-3.2-3.2H351.3&#10;&#9;&#9;z"/>
	<path class="st4_scientist-14" d="M348.7,307.2h24.6c1.5,0,2.6,1.2,2.6,2.6v5.2c0,1.5-1.2,2.6-2.6,2.6h-24.6c-1.5,0-2.6-1.2-2.6-2.6v-5.2&#10;&#9;&#9;C346.1,308.4,347.2,307.2,348.7,307.2z"/>
	<path class="st1_scientist-14" d="M370.7,319.6h-19.4c-4-0.1-7.1-3.5-6.9-7.5c0.1-3.8,3.2-6.8,6.9-6.9h19.4c4-0.1,7.3,3,7.5,6.9&#10;&#9;&#9;c0.1,4-3,7.3-6.9,7.5C371.1,319.6,370.9,319.6,370.7,319.6L370.7,319.6z M351.3,309.2c-1.8,0-3.2,1.5-3.2,3.2&#10;&#9;&#9;c0,1.8,1.5,3.2,3.2,3.2h19.4c1.8,0,3.2-1.5,3.2-3.2c0-1.8-1.5-3.2-3.2-3.2H351.3z"/>
	<path class="st4_scientist-14" d="M348.7,317.6h24.6c1.5,0,2.6,1.2,2.6,2.6v5.2c0,1.5-1.2,2.6-2.6,2.6h-24.6c-1.5,0-2.6-1.2-2.6-2.6v-5.2&#10;&#9;&#9;C346.1,318.8,347.2,317.6,348.7,317.6z"/>
	<path class="st1_scientist-14" d="M370.7,330.1h-19.4c-4-0.1-7.1-3.5-6.9-7.5c0.1-3.8,3.2-6.8,6.9-6.9h19.4c4-0.1,7.3,3,7.5,6.9&#10;&#9;&#9;c0.1,4-3,7.3-6.9,7.5C371.1,330.1,370.9,330.1,370.7,330.1L370.7,330.1z M351.3,319.6c-1.8,0-3.2,1.5-3.2,3.2&#10;&#9;&#9;c0,1.8,1.5,3.2,3.2,3.2h19.4c1.8,0,3.2-1.5,3.2-3.2c0-1.8-1.5-3.2-3.2-3.2H351.3z"/>
	<path class="st2_scientist-14" d="M340.7,264.1h25.7c1,0,1.9,0.8,1.9,1.9v6c0,1-0.8,1.9-1.9,1.9h-25.7c-1,0-1.9-0.8-1.9-1.9v-6&#10;&#9;&#9;C338.8,264.9,339.6,264.1,340.7,264.1z"/>
	<path class="st1_scientist-14" d="M364.5,275.7h-22c-3.1,0-5.7-2.5-5.7-5.7v-2.3c0-3.1,2.5-5.7,5.7-5.7h0h22c3.1,0,5.7,2.5,5.7,5.7v0v2.3&#10;&#9;&#9;C370.2,273.2,367.7,275.7,364.5,275.7z M342.5,266c-0.9,0-1.7,0.8-1.7,1.7l0,0v2.3c0,0.9,0.8,1.7,1.7,1.7l0,0h22&#10;&#9;&#9;c0.9,0,1.7-0.8,1.7-1.7v-2.3c0-0.9-0.8-1.7-1.7-1.7H342.5z"/>
</g>
<g id="bubbles_scientist-14">
	<path class="st8_scientist-14" d="M139.5,254.8c-4.4,0-7.9-3.5-7.9-7.9c0-4.4,3.5-7.9,7.9-7.9s7.9,3.5,7.9,7.9c0,0,0,0,0,0&#10;&#9;&#9;C147.4,251.3,143.9,254.8,139.5,254.8z M139.5,243c-2.2,0-3.9,1.7-3.9,3.9s1.7,3.9,3.9,3.9s3.9-1.7,3.9-3.9c0,0,0,0,0,0&#10;&#9;&#9;C143.5,244.8,141.7,243,139.5,243C139.5,243,139.5,243,139.5,243L139.5,243z"/>
	<path class="st8_scientist-14" d="M139.5,202.9c-4.4,0-7.9-3.5-7.9-7.9s3.5-7.9,7.9-7.9s7.9,3.5,7.9,7.9v0C147.4,199.3,143.9,202.9,139.5,202.9z&#10;&#9;&#9; M139.5,191.1c-2.2,0-3.9,1.7-3.9,3.9s1.7,3.9,3.9,3.9s3.9-1.7,3.9-3.9c0,0,0,0,0,0C143.5,192.8,141.7,191.1,139.5,191.1z"/>
	<path class="st8_scientist-14" d="M119.5,230.2c-6,0-10.9-4.9-10.9-10.9c0-6,4.9-10.9,10.9-10.9c6,0,10.9,4.9,10.9,10.9c0,0,0,0,0,0&#10;&#9;&#9;C130.4,225.3,125.5,230.2,119.5,230.2z M119.5,212.4c-3.8,0-6.9,3.2-6.9,7c0,3.8,3.2,6.9,7,6.9c3.8,0,6.9-3.1,6.9-7&#10;&#9;&#9;C126.5,215.5,123.4,212.4,119.5,212.4C119.5,212.4,119.5,212.4,119.5,212.4z"/>
	<path class="st8_scientist-14" d="M354.5,251.4c-4.4,0-7.9-3.5-7.9-7.9c0-4.4,3.5-7.9,7.9-7.9c4.4,0,7.9,3.5,7.9,7.9v0&#10;&#9;&#9;C362.4,247.9,358.9,251.4,354.5,251.4z M354.5,239.6c-2.2,0-3.9,1.8-3.9,3.9s1.8,3.9,3.9,3.9c2.2,0,3.9-1.8,3.9-3.9&#10;&#9;&#9;C358.5,241.3,356.7,239.6,354.5,239.6L354.5,239.6z"/>
	<path class="st8_scientist-14" d="M369.9,230.2c-6,0-10.9-4.9-10.9-10.9s4.9-10.9,10.9-10.9c6,0,10.9,4.9,10.9,10.9&#10;&#9;&#9;C380.8,225.3,375.9,230.2,369.9,230.2z M369.9,212.4c-3.8,0-7,3.1-7,6.9s3.1,7,6.9,7c3.8,0,7-3.1,7-6.9c0,0,0,0,0,0&#10;&#9;&#9;C376.8,215.5,373.7,212.4,369.9,212.4L369.9,212.4z"/>
</g>
</svg>